<!--
/*

  filename:git://gormantec:gcode_repo/build-my-app.svg
  created: 2023-1-0T08:16:23
  

*/
-->
<svg xmlns="http://www.w3.org/2000/svg" enable-background="new 0 0 30 30" height="192" viewBox="0 0 30 30" width="192">
    <rect name="outerBG" fill="rgb(242,118,2)" rx="3" height="30" width="30"/>
    <rect name="innerBG" fill="none" rx="3" height="28" width="28" transform="translate(1 1)"/>
    <g id="icon" name="action build" fill="rgb(255,255,255)" transform="translate(3 3)">
        <path clip-rule="evenodd" d="M0 0h24v24H0z" fill="none"/><path d="M22.7 19l-9.1-9.1c.9-2.3.4-5-1.5-6.9-2-2-5-2.4-7.4-1.3L9 6 6 9 1.6 4.7C.4 7.1.9 10.1 2.9 12.1c1.9 1.9 4.6 2.4 6.9 1.5l9.1 9.1c.4.4 1 .4 1.4 0l2.3-2.3c.5-.4.5-1.1.1-1.4z"/>
    </g>
</svg>